<mxfile host="app.diagrams.net" modified="2023-03-07T14:09:35.478Z" agent="5.0 (Macintosh; Intel Mac OS X 10_15_7) AppleWebKit/537.36 (KHTML, like Gecko) Chrome/110.0.0.0 Safari/537.36" etag="XcTLAiPp2ZUvCxKfsxeW" version="21.0.2" type="github">
  <diagram id="1qVJCfuYaMeoUfc-0dYW" name="Page-1">
    <mxGraphModel dx="1434" dy="828" grid="1" gridSize="10" guides="1" tooltips="1" connect="1" arrows="1" fold="1" page="1" pageScale="1" pageWidth="827" pageHeight="1169" math="0" shadow="0">
      <root>
        <mxCell id="0" />
        <mxCell id="1" parent="0" />
        <mxCell id="womPOICztjm91fhaPhi_-15" value="vFIL Minting - FVM" style="text;html=1;strokeColor=none;fillColor=none;align=center;verticalAlign=middle;whiteSpace=wrap;rounded=0;fontStyle=1;fontSize=24;" parent="1" vertex="1">
          <mxGeometry x="88" y="60" width="260" height="30" as="geometry" />
        </mxCell>
        <mxCell id="pMloL219qcgL_t570dXO-1" value="&lt;b&gt;Bifrost&lt;/b&gt;" style="ellipse;whiteSpace=wrap;html=1;aspect=fixed;" parent="1" vertex="1">
          <mxGeometry x="120" y="298" width="170" height="170" as="geometry" />
        </mxCell>
        <mxCell id="pMloL219qcgL_t570dXO-2" value="&lt;b&gt;Filecoin&lt;/b&gt;" style="ellipse;whiteSpace=wrap;html=1;aspect=fixed;" parent="1" vertex="1">
          <mxGeometry x="550" y="298" width="170" height="170" as="geometry" />
        </mxCell>
        <mxCell id="pMloL219qcgL_t570dXO-3" value="user" style="shape=hexagon;perimeter=hexagonPerimeter2;whiteSpace=wrap;html=1;fixedSize=1;" parent="1" vertex="1">
          <mxGeometry x="260" y="358" width="60" height="30" as="geometry" />
        </mxCell>
        <mxCell id="pMloL219qcgL_t570dXO-4" value="user" style="shape=hexagon;perimeter=hexagonPerimeter2;whiteSpace=wrap;html=1;fixedSize=1;" parent="1" vertex="1">
          <mxGeometry x="520" y="358" width="60" height="30" as="geometry" />
        </mxCell>
        <mxCell id="pMloL219qcgL_t570dXO-7" value="vtoken-minting module" style="shape=cylinder3;whiteSpace=wrap;html=1;boundedLbl=1;backgroundOutline=1;size=15;" parent="1" vertex="1">
          <mxGeometry x="150" y="278" width="100" height="60" as="geometry" />
        </mxCell>
        <mxCell id="pMloL219qcgL_t570dXO-10" value="2. Transfer FIL" style="curved=1;endArrow=classic;html=1;rounded=0;entryX=0.94;entryY=0.15;entryDx=0;entryDy=0;entryPerimeter=0;exitX=0.625;exitY=0;exitDx=0;exitDy=0;" parent="1" source="pMloL219qcgL_t570dXO-3" target="pMloL219qcgL_t570dXO-7" edge="1">
          <mxGeometry x="-0.3448" y="-4" width="50" height="50" relative="1" as="geometry">
            <mxPoint x="400" y="298" as="sourcePoint" />
            <mxPoint x="340" y="258" as="targetPoint" />
            <Array as="points">
              <mxPoint x="310" y="298" />
            </Array>
            <mxPoint as="offset" />
          </mxGeometry>
        </mxCell>
        <mxCell id="pMloL219qcgL_t570dXO-11" value="Relayer" style="shape=cylinder3;whiteSpace=wrap;html=1;boundedLbl=1;backgroundOutline=1;size=15;" parent="1" vertex="1">
          <mxGeometry x="390" y="478" width="60" height="80" as="geometry" />
        </mxCell>
        <mxCell id="pMloL219qcgL_t570dXO-12" value="" style="endArrow=none;dashed=1;html=1;rounded=0;exitX=1;exitY=0.5;exitDx=0;exitDy=0;" parent="1" edge="1">
          <mxGeometry width="50" height="50" relative="1" as="geometry">
            <mxPoint x="710" y="423" as="sourcePoint" />
            <mxPoint x="720" y="423" as="targetPoint" />
          </mxGeometry>
        </mxCell>
        <mxCell id="pMloL219qcgL_t570dXO-17" value="Actor" style="shape=umlActor;verticalLabelPosition=bottom;verticalAlign=top;html=1;outlineConnect=0;" parent="1" vertex="1">
          <mxGeometry x="399" y="198" width="30" height="60" as="geometry" />
        </mxCell>
        <mxCell id="pMloL219qcgL_t570dXO-23" value="" style="endArrow=classic;html=1;rounded=0;exitX=0;exitY=0.3333333333333333;exitDx=0;exitDy=0;exitPerimeter=0;entryX=0.855;entryY=0;entryDx=0;entryDy=4.35;entryPerimeter=0;dashed=1;" parent="1" source="pMloL219qcgL_t570dXO-17" target="pMloL219qcgL_t570dXO-7" edge="1">
          <mxGeometry width="50" height="50" relative="1" as="geometry">
            <mxPoint x="250" y="268" as="sourcePoint" />
            <mxPoint x="300" y="218" as="targetPoint" />
          </mxGeometry>
        </mxCell>
        <mxCell id="pMloL219qcgL_t570dXO-24" value="1. User call mint function" style="edgeLabel;html=1;align=center;verticalAlign=middle;resizable=0;points=[];" parent="pMloL219qcgL_t570dXO-23" vertex="1" connectable="0">
          <mxGeometry x="0.2044" y="-2" relative="1" as="geometry">
            <mxPoint as="offset" />
          </mxGeometry>
        </mxCell>
        <mxCell id="pMloL219qcgL_t570dXO-25" value="3. Mint vFil" style="curved=1;endArrow=classic;html=1;rounded=0;exitX=0.5;exitY=1;exitDx=0;exitDy=0;exitPerimeter=0;entryX=0;entryY=0.75;entryDx=0;entryDy=0;" parent="1" source="pMloL219qcgL_t570dXO-7" target="pMloL219qcgL_t570dXO-3" edge="1">
          <mxGeometry x="-0.3051" width="50" height="50" relative="1" as="geometry">
            <mxPoint x="193" y="428" as="sourcePoint" />
            <mxPoint x="243" y="378" as="targetPoint" />
            <Array as="points">
              <mxPoint x="230" y="368" />
            </Array>
            <mxPoint as="offset" />
          </mxGeometry>
        </mxCell>
        <mxCell id="H3R4gEy1adn16-IlFVim-1" value="&lt;font style=&quot;font-size: 14px;&quot;&gt;&lt;b&gt;Scenario 1&lt;/b&gt;: user mints vtoken in Bifrost&lt;/font&gt;" style="text;html=1;strokeColor=none;fillColor=none;align=center;verticalAlign=middle;whiteSpace=wrap;rounded=0;strokeWidth=5;" vertex="1" parent="1">
          <mxGeometry x="110" y="120" width="160" height="60" as="geometry" />
        </mxCell>
        <mxCell id="H3R4gEy1adn16-IlFVim-2" value="vFil contract" style="swimlane;whiteSpace=wrap;html=1;fillColor=#f8cecc;strokeColor=#b85450;" vertex="1" parent="1">
          <mxGeometry x="580" y="278" width="110" height="40" as="geometry" />
        </mxCell>
        <mxCell id="H3R4gEy1adn16-IlFVim-18" value="&lt;b&gt;Bifrost&lt;/b&gt;" style="ellipse;whiteSpace=wrap;html=1;aspect=fixed;" vertex="1" parent="1">
          <mxGeometry x="130" y="818" width="170" height="170" as="geometry" />
        </mxCell>
        <mxCell id="H3R4gEy1adn16-IlFVim-19" value="&lt;b&gt;Filecoin&lt;/b&gt;" style="ellipse;whiteSpace=wrap;html=1;aspect=fixed;" vertex="1" parent="1">
          <mxGeometry x="560" y="818" width="170" height="170" as="geometry" />
        </mxCell>
        <mxCell id="H3R4gEy1adn16-IlFVim-20" value="user" style="shape=hexagon;perimeter=hexagonPerimeter2;whiteSpace=wrap;html=1;fixedSize=1;" vertex="1" parent="1">
          <mxGeometry x="270" y="878" width="60" height="30" as="geometry" />
        </mxCell>
        <mxCell id="H3R4gEy1adn16-IlFVim-21" value="user" style="shape=hexagon;perimeter=hexagonPerimeter2;whiteSpace=wrap;html=1;fixedSize=1;" vertex="1" parent="1">
          <mxGeometry x="530" y="878" width="60" height="30" as="geometry" />
        </mxCell>
        <mxCell id="H3R4gEy1adn16-IlFVim-23" value="vtoken-minting module" style="shape=cylinder3;whiteSpace=wrap;html=1;boundedLbl=1;backgroundOutline=1;size=15;" vertex="1" parent="1">
          <mxGeometry x="160" y="798" width="100" height="60" as="geometry" />
        </mxCell>
        <mxCell id="H3R4gEy1adn16-IlFVim-25" value="Relayer" style="shape=cylinder3;whiteSpace=wrap;html=1;boundedLbl=1;backgroundOutline=1;size=15;" vertex="1" parent="1">
          <mxGeometry x="400" y="998" width="60" height="80" as="geometry" />
        </mxCell>
        <mxCell id="H3R4gEy1adn16-IlFVim-26" value="" style="endArrow=none;dashed=1;html=1;rounded=0;exitX=1;exitY=0.5;exitDx=0;exitDy=0;" edge="1" parent="1">
          <mxGeometry width="50" height="50" relative="1" as="geometry">
            <mxPoint x="720" y="943" as="sourcePoint" />
            <mxPoint x="730" y="943" as="targetPoint" />
          </mxGeometry>
        </mxCell>
        <mxCell id="H3R4gEy1adn16-IlFVim-27" value="Actor" style="shape=umlActor;verticalLabelPosition=bottom;verticalAlign=top;html=1;outlineConnect=0;" vertex="1" parent="1">
          <mxGeometry x="409" y="718" width="30" height="60" as="geometry" />
        </mxCell>
        <mxCell id="H3R4gEy1adn16-IlFVim-28" value="" style="endArrow=classic;html=1;rounded=0;exitX=1;exitY=0.3333333333333333;exitDx=0;exitDy=0;exitPerimeter=0;entryX=0.25;entryY=0;entryDx=0;entryDy=0;dashed=1;" edge="1" parent="1" source="H3R4gEy1adn16-IlFVim-27" target="H3R4gEy1adn16-IlFVim-32">
          <mxGeometry width="50" height="50" relative="1" as="geometry">
            <mxPoint x="260" y="788" as="sourcePoint" />
            <mxPoint x="310" y="738" as="targetPoint" />
          </mxGeometry>
        </mxCell>
        <mxCell id="H3R4gEy1adn16-IlFVim-29" value="1. User call vFil contractl" style="edgeLabel;html=1;align=center;verticalAlign=middle;resizable=0;points=[];" vertex="1" connectable="0" parent="H3R4gEy1adn16-IlFVim-28">
          <mxGeometry x="0.2044" y="-2" relative="1" as="geometry">
            <mxPoint x="-5" y="-6" as="offset" />
          </mxGeometry>
        </mxCell>
        <mxCell id="H3R4gEy1adn16-IlFVim-31" value="&lt;font style=&quot;font-size: 14px;&quot;&gt;&lt;b&gt;Scenario 2&lt;/b&gt;: user mints vtoken in Filecoin&lt;/font&gt;" style="text;html=1;strokeColor=none;fillColor=none;align=center;verticalAlign=middle;whiteSpace=wrap;rounded=0;strokeWidth=5;" vertex="1" parent="1">
          <mxGeometry x="120" y="640" width="160" height="60" as="geometry" />
        </mxCell>
        <mxCell id="H3R4gEy1adn16-IlFVim-32" value="vFil contract" style="swimlane;whiteSpace=wrap;html=1;fillColor=#f8cecc;strokeColor=#b85450;" vertex="1" parent="1">
          <mxGeometry x="590" y="798" width="110" height="40" as="geometry" />
        </mxCell>
        <mxCell id="H3R4gEy1adn16-IlFVim-33" value="3. Mint vFil" style="endArrow=classic;html=1;rounded=0;exitX=0;exitY=0.25;exitDx=0;exitDy=0;entryX=0.375;entryY=0;entryDx=0;entryDy=0;" edge="1" parent="1" source="H3R4gEy1adn16-IlFVim-32" target="H3R4gEy1adn16-IlFVim-21">
          <mxGeometry x="0.1337" y="-4" width="50" height="50" relative="1" as="geometry">
            <mxPoint x="460" y="870" as="sourcePoint" />
            <mxPoint x="510" y="820" as="targetPoint" />
            <Array as="points">
              <mxPoint x="560" y="830" />
              <mxPoint x="550" y="850" />
            </Array>
            <mxPoint y="-1" as="offset" />
          </mxGeometry>
        </mxCell>
        <mxCell id="H3R4gEy1adn16-IlFVim-34" value="" style="endArrow=classic;html=1;rounded=0;entryX=0.5;entryY=1;entryDx=0;entryDy=0;" edge="1" parent="1" target="H3R4gEy1adn16-IlFVim-32">
          <mxGeometry width="50" height="50" relative="1" as="geometry">
            <mxPoint x="590" y="890" as="sourcePoint" />
            <mxPoint x="640" y="840" as="targetPoint" />
          </mxGeometry>
        </mxCell>
        <mxCell id="H3R4gEy1adn16-IlFVim-35" value="2. Transfer Fil" style="edgeLabel;html=1;align=center;verticalAlign=middle;resizable=0;points=[];" vertex="1" connectable="0" parent="H3R4gEy1adn16-IlFVim-34">
          <mxGeometry x="-0.1136" y="2" relative="1" as="geometry">
            <mxPoint as="offset" />
          </mxGeometry>
        </mxCell>
      </root>
    </mxGraphModel>
  </diagram>
</mxfile>
